<svg width="36" height="35" viewBox="0 0 36 35" fill="none" xmlns="http://www.w3.org/2000/svg">
<path d="M35.9919 10.3367C35.9919 10.333 35.9924 10.3293 35.9924 10.3256C35.9924 5.83156 32.2128 2.18848 27.5502 2.18848C22.8877 2.18848 19.1082 5.83149 19.1082 10.3256C19.1082 14.8198 22.8881 18.4628 27.5503 18.4628C28.5085 18.4628 29.4258 18.3018 30.284 18.0181C28.3847 28.5205 19.8879 35.2934 27.7643 29.7191C36.4982 23.5379 36.0017 10.5739 35.9919 10.3367Z" fill="#0165C3"/>
<path d="M8.44213 18.4627C9.40035 18.4627 10.3176 18.3017 11.1763 18.0181C9.27645 28.5204 0.779657 35.2933 8.65616 29.719C17.39 23.5379 16.8936 10.5739 16.8838 10.3367C16.8838 10.333 16.8842 10.3293 16.8842 10.3256C16.8842 5.83156 13.1047 2.18848 8.44213 2.18848C3.77955 2.18848 0 5.83149 0 10.3256C0 14.8198 3.77997 18.4627 8.44213 18.4627Z" fill="#0165C3"/>
</svg>
