<svg width="20" height="20" viewBox="0 0 20 20" fill="none" xmlns="http://www.w3.org/2000/svg">
<path d="M15.325 8.325C15.325 11.7833 11.95 15.9417 10.575 17.4917C10.2667 17.8333 9.73332 17.8333 9.42499 17.4917C8.04999 15.9417 4.67499 11.7833 4.67499 8.325C4.67499 5.38333 7.05832 3 9.99999 3C12.9417 3 15.325 5.38333 15.325 8.325Z" stroke="#010101" stroke-width="1.2" stroke-miterlimit="10" stroke-linecap="round" stroke-linejoin="round"/>
<path d="M9.99164 10.4583C11.1698 10.4583 12.125 9.50319 12.125 8.32498C12.125 7.14678 11.1698 6.19165 9.99164 6.19165C8.81343 6.19165 7.85831 7.14678 7.85831 8.32498C7.85831 9.50319 8.81343 10.4583 9.99164 10.4583Z" stroke="#010101" stroke-width="1.2" stroke-miterlimit="10" stroke-linecap="round" stroke-linejoin="round"/>
</svg>
