<svg width="20" height="20" viewBox="0 0 20 20" fill="none" xmlns="http://www.w3.org/2000/svg">
<mask id="path-1-inside-1_1:254" fill="white">
<path d="M2 12C2 11.4477 2.44772 11 3 11H17C17.5523 11 18 11.4477 18 12V14C18 15.6569 16.6569 17 15 17H5C3.34315 17 2 15.6569 2 14V12Z"/>
</mask>
<path d="M2 12C2 11.4477 2.44772 11 3 11H17C17.5523 11 18 11.4477 18 12V14C18 15.6569 16.6569 17 15 17H5C3.34315 17 2 15.6569 2 14V12Z" fill="white" stroke="#656361" stroke-width="2.6" mask="url(#path-1-inside-1_1:254)"/>
<rect x="5.41422" y="16" width="1.3" height="2" rx="0.65" transform="rotate(45 5.41422 16)" fill="#656361"/>
<rect width="1.3" height="2" rx="0.65" transform="matrix(-0.707107 0.707107 0.707107 0.707107 14.59 16.0133)" fill="#656361"/>
<rect x="1.65" y="8.95005" width="16.7" height="2.7" rx="1.35" fill="white" stroke="#656361" stroke-width="1.3"/>
<path d="M6.70931 4.08135C7.0304 4.24189 7.42083 4.11175 7.58138 3.79066C7.74192 3.46957 7.61177 3.07914 7.29069 2.91859L6.70931 4.08135ZM4.65 8.49997V3.99997H3.35V8.49997H4.65ZM4.65 3.99997C4.65 3.83363 4.72012 3.70531 4.85471 3.64799C5.03499 3.5712 5.55969 3.50654 6.70931 4.08135L7.29069 2.91859C6.04031 2.2934 5.06501 2.14541 4.34529 2.45196C3.57988 2.77796 3.35 3.49964 3.35 3.99997H4.65Z" fill="#656361"/>
<rect x="9.20326" y="4.08203" width="3" height="1.94433" rx="0.972164" transform="rotate(135 9.20326 4.08203)" fill="white" stroke="#656361"/>
</svg>
