<svg width="20" height="20" viewBox="0 0 20 20" fill="none" xmlns="http://www.w3.org/2000/svg">
<mask id="path-1-inside-1_1:264" fill="white">
<rect width="6" height="17" rx="0.5" transform="matrix(-1 8.81058e-08 8.67451e-08 1 18 1)"/>
</mask>
<rect width="6" height="17" rx="0.5" transform="matrix(-1 8.81058e-08 8.67451e-08 1 18 1)" fill="white" stroke="#656361" stroke-width="2.6" mask="url(#path-1-inside-1_1:264)"/>
<line x1="0.65" y1="-0.65" x2="2.35" y2="-0.65" transform="matrix(-1 8.74228e-08 8.74228e-08 1 15 16)" stroke="#656361" stroke-width="1.3" stroke-linecap="round"/>
<line x1="0.65" y1="-0.65" x2="2.35" y2="-0.65" transform="matrix(-1 8.74228e-08 8.74228e-08 1 15 12)" stroke="#656361" stroke-width="1.3" stroke-linecap="round"/>
<line x1="0.65" y1="-0.65" x2="1.35" y2="-0.65" transform="matrix(-1 1.09278e-07 1.09278e-07 1 14 14)" stroke="#656361" stroke-width="1.3" stroke-linecap="round"/>
<line x1="0.65" y1="-0.65" x2="1.35" y2="-0.65" transform="matrix(-1 1.09278e-07 1.09278e-07 1 14 10)" stroke="#656361" stroke-width="1.3" stroke-linecap="round"/>
<mask id="path-6-inside-2_1:264" fill="white">
<rect x="18" y="1" width="6" height="17" rx="0.5" transform="rotate(90 18 1)"/>
</mask>
<rect x="18" y="1" width="6" height="17" rx="0.5" transform="rotate(90 18 1)" fill="white" stroke="#656361" stroke-width="2.6" mask="url(#path-6-inside-2_1:264)"/>
<line x1="3.65" y1="4.65" x2="3.65" y2="6.35" stroke="#656361" stroke-width="1.3" stroke-linecap="round"/>
<line x1="7.65" y1="4.65" x2="7.65" y2="6.35" stroke="#656361" stroke-width="1.3" stroke-linecap="round"/>
<line x1="5.65" y1="5.65" x2="5.65" y2="6.35" stroke="#656361" stroke-width="1.3" stroke-linecap="round"/>
<line x1="9.65" y1="5.65" x2="9.65" y2="6.35" stroke="#656361" stroke-width="1.3" stroke-linecap="round"/>
<line x1="12.65" y1="2" x2="12.65" y2="8" stroke="#656361" stroke-width="1.3"/>
</svg>
