<svg width="296" height="72" viewBox="0 0 296 72" fill="none" xmlns="http://www.w3.org/2000/svg">
<rect x="0.5" y="0.5" width="295" height="71" rx="14.5" fill="white" stroke="url(#paint0_linear_1:616)"/>
<path d="M68 24L70.6942 32.2918H79.4127L72.3593 37.4164L75.0534 45.7082L68 40.5836L60.9466 45.7082L63.6407 37.4164L56.5873 32.2918H65.3058L68 24Z" fill="#0165C3"/>
<path d="M108 24L110.694 32.2918H119.413L112.359 37.4164L115.053 45.7082L108 40.5836L100.947 45.7082L103.641 37.4164L96.5873 32.2918H105.306L108 24Z" fill="#0165C3"/>
<path d="M148 24L150.694 32.2918H159.413L152.359 37.4164L155.053 45.7082L148 40.5836L140.947 45.7082L143.641 37.4164L136.587 32.2918H145.306L148 24Z" fill="#0165C3"/>
<path d="M188 24L190.694 32.2918H199.413L192.359 37.4164L195.053 45.7082L188 40.5836L180.947 45.7082L183.641 37.4164L176.587 32.2918H185.306L188 24Z" fill="#0165C3"/>
<path d="M228 24L230.694 32.2918H239.413L232.359 37.4164L235.053 45.7082L228 40.5836L220.947 45.7082L223.641 37.4164L216.587 32.2918H225.306L228 24Z" fill="#0165C3"/>
<defs>
<linearGradient id="paint0_linear_1:616" x1="148" y1="0" x2="148" y2="72" gradientUnits="userSpaceOnUse">
<stop stop-color="#F2F2F2"/>
<stop offset="1" stop-color="#F2F2F2" stop-opacity="0"/>
</linearGradient>
</defs>
</svg>
